<svg height="60" viewBox="240.33 322.92 180 45" width="240" xmlns="http://www.w3.org/2000/svg">
    <path d="M326.88 352.48q-.3 0-.53-.23-.23-.22-.23-.53v-19.78q0-.34.21-.56.21-.23.55-.23h9.42q3.87 0 5.76 1.58 1.89 1.59 1.89 4.51 0 1.47-.78 2.53-.78 1.07-1.72 1.56 1.25.55 2.1 1.81.85 1.27.85 2.85 0 3.08-2.02 4.79-2.03 1.7-5.8 1.7zm4.97-12.89h3.8q1.13 0 1.74-.61.61-.6.61-1.58 0-.95-.6-1.54-.59-.6-1.74-.6h-3.81zm0 8.78h4.08q1.19 0 1.85-.69.65-.68.65-1.69 0-1.04-.67-1.72-.67-.69-1.83-.69h-4.08zm16.24 4.11q-.3 0-.53-.23-.23-.22-.23-.53v-14.3q0-.33.21-.56.22-.23.55-.23h3.72q.34 0 .56.23.23.23.23.57v1.15q.86-.94 2-1.44 1.14-.5 2.54-.5h1.38q.33 0 .55.2.2.22.2.56v3.32q0 .3-.2.53-.22.23-.55.23h-3.08q-1.22 0-1.88.67-.65.67-.65 1.89v7.68q0 .34-.23.55-.23.21-.56.21zm14.05-18.04q-.33 0-.55-.23-.2-.23-.2-.56v-2.84q0-.33.22-.56.23-.23.53-.23h3.81q.34 0 .57.23.23.23.23.56v2.84q0 .33-.23.56-.23.23-.57.23zm0 18.04q-.3 0-.53-.23-.23-.22-.23-.53V337.4q0-.34.23-.55.23-.22.53-.22h3.81q.34 0 .57.22.23.21.23.55v14.32q0 .34-.23.55-.23.21-.57.21zm15.46.3q-3.48 0-5.63-1.84t-2.3-5.13l-.03-1.22.03-1.25q.12-3.3 2.29-5.15 2.16-1.86 5.64-1.86 2.65 0 4.45.94 1.8.95 2.68 2.24.88 1.3.94 2.37.03.33-.21.56-.24.23-.58.23h-4.08q-.34 0-.52-.15-.18-.16-.34-.5-.33-.85-.87-1.24-.53-.4-1.35-.4-2.35 0-2.44 3.11l-.03 1.16.03 1q.03 1.59.64 2.34.61.74 1.8.74.88 0 1.39-.38.5-.38.83-1.26.16-.34.34-.49.18-.15.52-.15h4.08q.3 0 .55.21.24.21.24.52 0 .94-.83 2.27-.84 1.33-2.67 2.33t-4.57 1zm11.49-.3q-.34 0-.57-.21-.22-.21-.22-.55V331.6q0-.33.22-.54.23-.22.57-.22h3.72q.33 0 .54.22.22.2.22.54v10.18l4.05-4.63.23-.21q.17-.15.35-.23.18-.08.46-.08h4.3q.27 0 .47.2.2.2.2.5 0 .28-.22.5l-5.36 5.9 6.12 7.6q.22.27.22.45 0 .3-.2.5t-.5.2h-4.42q-.4 0-.6-.12-.2-.12-.47-.4l-4.63-5.73v5.5q0 .3-.22.52-.2.23-.54.23zm23.53.3q-2.5 0-4.18-.7-1.67-.7-2.48-1.67-.81-.98-.81-1.77 0-.3.23-.5t.5-.2h3.69q.18 0 .3.12.52.34.58.4.58.43 1.09.65.5.23 1.2.23.82 0 1.36-.32.53-.32.53-.9 0-.48-.29-.79-.29-.3-1.1-.6-.8-.28-2.45-.59-5.27-1.06-5.27-4.87 0-1.25.8-2.4.81-1.14 2.38-1.84 1.57-.7 3.77-.7 2.22 0 3.85.68 1.63.69 2.49 1.65.85.96.85 1.75 0 .28-.2.5-.2.2-.47.2h-3.35q-.28 0-.43-.12-.37-.18-.73-.46-.55-.36-.96-.56-.41-.2-1.05-.2-.77 0-1.2.34-.42.33-.42.85 0 .46.26.75t1.07.56q.8.28 2.45.58 2.99.52 4.34 1.85 1.36 1.32 1.36 3.09 0 2.28-2.03 3.64-2.02 1.36-5.68 1.36z" fill="#ddd"/>
    <g fill="#333">
        <path d="M241.13 358.73v-18.38a4.3 4.3 0 0 1 1.95-3.37l22.33-12.89a3.07 3.07 0 0 1 2.78 0l9.5 5.49a4.3 4.3 0 0 1 1.94 3.36v18.38c0 .89-.62 1.97-1.39 2.4l-22.33 12.9a4.3 4.3 0 0 1-3.89 0l-9.5-5.48a3.07 3.07 0 0 1-1.39-2.4z"/>
        <path d="M266.8 322.92c-.62 0-1.25.16-1.8.48l-22.32 12.89a4.85 4.85 0 0 0-2.35 4.06v18.38c0 1.26.7 2.47 1.79 3.1l9.5 5.49c1.4.8 3.3.8 4.7 0l22.32-12.9a3.62 3.62 0 0 0 1.8-3.1v-18.38c0-1.61-.95-3.25-2.35-4.06l-9.5-5.48a3.58 3.58 0 0 0-1.8-.48zm0 1.67c.38 0 .77.07.99.2l9.5 5.48a3.84 3.84 0 0 1 1.54 2.67v18.38c0 .51-.55 1.46-.99 1.71l-22.33 12.9c-.75.43-2.34.43-3.09 0l-9.5-5.49a2.65 2.65 0 0 1-.99-1.7v-18.39c0-.86.8-2.24 1.55-2.67l22.33-12.9c.22-.12.6-.19.99-.19z"/>
    </g>
    <path d="M241.13 341.32v17.41c0 .89.62 1.97 1.4 2.4l8.66 5.01c1.53.89 2.77.17 2.77-1.6v-17.42c0-.88-.62-1.96-1.38-2.4l-8.67-5c-1.53-.9-2.78-.17-2.78 1.6z" fill="#37c871"/>
    <path d="M242.88 338.54c-.47-.04-.93.05-1.34.28-.8.47-1.21 1.42-1.21 2.5v17.41c0 1.26.7 2.47 1.79 3.1l8.67 5c.92.54 1.95.67 2.76.2.81-.47 1.22-1.42 1.22-2.5v-17.4c0-1.27-.7-2.48-1.8-3.11l-8.66-5a3.47 3.47 0 0 0-1.43-.48zm-.1 1.6c.19.02.43.1.73.27l8.66 5c.45.25 1 1.2 1 1.71v17.42c0 .7-.22.99-.42 1.1-.2.11-.56.15-1.16-.2l-8.67-5a2.65 2.65 0 0 1-.99-1.7v-17.42c0-.7.22-1 .42-1.1a.7.7 0 0 1 .43-.08z" fill="#333"/>
    <path d="M279.63 333.9v17.42c0 .89-.62 1.97-1.39 2.4l-21.5 12.42c-1.53.89-2.78.17-2.78-1.6v-17.42c0-.88.63-1.96 1.4-2.4l21.5-12.42c1.53-.88 2.77-.16 2.77 1.6z" fill="#37c871"/>
    <path d="M277.88 331.13c-.47.04-.96.21-1.43.48l-21.5 12.41a3.62 3.62 0 0 0-1.79 3.1v17.42c0 1.07.4 2.02 1.22 2.49.8.47 1.83.34 2.76-.2l21.5-12.4a3.63 3.63 0 0 0 1.8-3.1V333.9c0-1.08-.41-2.03-1.22-2.5-.4-.23-.86-.32-1.34-.28zm.1 1.6a.7.7 0 0 1 .44.07c.2.12.41.4.41 1.1v17.42c0 .51-.55 1.46-.99 1.71l-21.5 12.42c-.6.34-.96.3-1.16.19-.2-.11-.41-.4-.41-1.1v-17.42c0-.5.54-1.46.99-1.71l21.5-12.41c.3-.18.54-.25.73-.27z" fill="#333"/>
    <path d="m276.85 329.1-8.66-5a3.07 3.07 0 0 0-2.78 0l-21.5 12.4c-1.53.89-1.53 2.33 0 3.21l8.67 5c.76.45 2 .45 2.77 0l21.5-12.4c1.54-.9 1.54-2.33 0-3.22z" fill="#37c871"/>
    <path d="M266.8 322.92c-.62 0-1.25.16-1.8.48l-21.5 12.4c-.92.55-1.54 1.37-1.54 2.3s.62 1.77 1.55 2.3l8.66 5c1.1.64 2.5.64 3.59 0l21.5-12.4c.92-.54 1.55-1.37 1.55-2.3 0-.94-.63-1.76-1.56-2.3l-8.66-5a3.58 3.58 0 0 0-1.8-.48zm0 1.67c.38 0 .77.07.99.2l8.66 5c.6.35.75.68.75.9 0 .24-.14.57-.75.92l-21.5 12.41c-.44.26-1.53.26-1.97 0l-8.67-5c-.6-.35-.75-.68-.75-.91 0-.23.15-.56.75-.91l21.5-12.41c.22-.13.6-.2.99-.2z" fill="#333"/>
    <g fill="#333">
        <path d="M266.8 358.73v-18.38a4.3 4.3 0 0 1 1.94-3.37l22.34-12.89a3.07 3.07 0 0 1 2.77 0l9.5 5.49a4.3 4.3 0 0 1 1.95 3.36v18.38c0 .89-.62 1.97-1.39 2.4l-22.33 12.9a4.3 4.3 0 0 1-3.9 0l-9.5-5.48a3.07 3.07 0 0 1-1.38-2.4z"/>
        <path d="M292.47 322.92c-.63 0-1.25.16-1.8.48l-22.33 12.89a4.85 4.85 0 0 0-2.34 4.06v18.38c0 1.26.7 2.47 1.79 3.1l9.5 5.49c1.4.8 3.29.8 4.69 0l22.33-12.9a3.63 3.63 0 0 0 1.8-3.1v-18.38c0-1.61-.96-3.25-2.35-4.06l-9.5-5.48a3.59 3.59 0 0 0-1.8-.48zm0 1.67c.38 0 .76.07.98.2l9.5 5.48a3.84 3.84 0 0 1 1.55 2.67v18.38c0 .51-.55 1.46-1 1.71l-22.32 12.9c-.75.43-2.34.43-3.1 0l-9.5-5.49a2.65 2.65 0 0 1-.98-1.7v-18.39c0-.86.8-2.24 1.54-2.67l22.34-12.9c.22-.12.6-.19.99-.19z"/>
    </g>
    <g>
        <path d="M266.8 341.32v17.41c0 .89.62 1.97 1.39 2.4l8.66 5.01c1.54.89 2.78.17 2.78-1.6v-17.42c0-.88-.62-1.96-1.39-2.4l-8.66-5c-1.54-.9-2.78-.17-2.78 1.6z" fill="#ddd"/>
        <path d="M268.55 338.54c-.48-.04-.93.05-1.34.28-.8.47-1.21 1.42-1.21 2.5v17.41c0 1.26.7 2.47 1.79 3.1l8.66 5c.93.54 1.96.67 2.77.2.8-.47 1.21-1.42 1.21-2.5v-17.4c0-1.27-.7-2.48-1.79-3.11l-8.66-5a3.47 3.47 0 0 0-1.43-.48zm-.1 1.6c.18.02.42.1.73.27l8.66 5c.44.25.99 1.2.99 1.71v17.42c0 .7-.22.99-.41 1.1-.2.11-.56.15-1.17-.2l-8.66-5a2.65 2.65 0 0 1-.99-1.7v-17.42c0-.7.22-1 .41-1.1a.7.7 0 0 1 .43-.08z" fill="#333"/>
    </g>
    <g>
        <path d="M305.3 333.9v17.42c0 .89-.62 1.97-1.39 2.4l-21.5 12.42c-1.53.89-2.78.17-2.78-1.6v-17.42c0-.88.62-1.96 1.4-2.4l21.49-12.42c1.53-.88 2.78-.16 2.78 1.6z" fill="#ddd"/>
        <path d="M303.55 331.13c-.48.04-.97.21-1.43.48l-21.5 12.41a3.62 3.62 0 0 0-1.79 3.1v17.42c0 1.07.4 2.02 1.22 2.49.8.47 1.83.34 2.76-.2l21.5-12.4a3.63 3.63 0 0 0 1.8-3.1V333.9c0-1.08-.42-2.03-1.22-2.5-.4-.23-.87-.32-1.34-.28zm.1 1.6a.7.7 0 0 1 .43.07c.2.12.42.4.42 1.1v17.42c0 .51-.55 1.46-1 1.71L282 365.45c-.6.34-.96.3-1.15.19-.2-.11-.42-.4-.42-1.1v-17.42c0-.5.55-1.46 1-1.71l21.5-12.41c.3-.18.53-.25.72-.27z" fill="#333"/>
    </g>
    <g>
        <path d="m302.52 329.1-8.67-5a3.07 3.07 0 0 0-2.77 0l-21.5 12.4c-1.54.89-1.54 2.33 0 3.21l8.66 5c.77.45 2.01.45 2.78 0l21.5-12.4c1.53-.9 1.53-2.33 0-3.22z" fill="#ddd"/>
        <path d="M292.47 322.92c-.63 0-1.25.16-1.8.48l-21.5 12.4c-.92.55-1.55 1.37-1.55 2.3s.63 1.77 1.56 2.3l8.66 5c1.1.64 2.49.64 3.58 0l21.5-12.4c.93-.54 1.55-1.37 1.55-2.3 0-.94-.62-1.76-1.55-2.3l-8.66-5a3.59 3.59 0 0 0-1.8-.48zm0 1.67c.38 0 .76.07.98.2l8.67 5c.6.35.75.68.75.9 0 .24-.15.57-.75.92l-21.5 12.41c-.44.26-1.54.26-1.98 0l-8.66-5c-.6-.35-.75-.68-.75-.91s.14-.56.75-.91l21.5-12.41c.22-.13.6-.2.99-.2z" fill="#333"/>
    </g>
</svg>
