<svg height="60" viewBox="240.329 322.923 180 45" width="240" xmlns="http://www.w3.org/2000/svg">
  <path d="m326.87866 352.48292q-.30475 0-.53337-.22862-.22862-.22862-.22862-.53337v-19.7814q0-.33524.21325-.56386.21349-.22862.54874-.22862h9.41808q3.87093 0 5.76065 1.58497 1.88971 1.58497 1.88971 4.51092 0 1.46322-.77711 2.52996-.77736 1.06673-1.72209 1.55447 1.24973.54849 2.10296 1.81359.85349 1.26485.85349 2.84983 0 3.07844-2.02684 4.78516-2.02684 1.70697-5.80627 1.70697zm4.96816-12.89302h3.80993q1.12773 0 1.73722-.60949.60974-.60974.60974-1.58497 0-.94499-.59436-1.5391-.59437-.59436-1.7526-.59436h-3.80993zm0 8.77809h4.08418q1.18873 0 1.84409-.68561.65536-.68586.65536-1.69159 0-1.03649-.67074-1.7221-.67048-.68586-1.82871-.68586h-4.08418zm16.24546 4.11493q-.30474 0-.53337-.22862-.22862-.22862-.22862-.53337v-14.29499q0-.33525.2135-.56387.21325-.22862.54849-.22862h3.71869q.33524 0 .56386.22862.22862.22862.22862.56387v1.15823q.85324-.94499 1.99634-1.44785 1.14285-.50287 2.54508-.50287h1.37148q.33524 0 .54874.21325.21324.21349.21324.54874v3.32219q0 .30499-.21324.53336-.2135.22862-.54874.22862h-3.07845q-1.21923 0-1.87434.67074-.65536.67049-.65536 1.88972v7.68086q0 .33525-.22863.54849-.22862.2135-.56386.2135zm14.05125-18.04393q-.33524 0-.54874-.22862-.21324-.22862-.21324-.56387v-2.8347q0-.33524.22862-.56386.22862-.22862.53336-.22862h3.80994q.33524 0 .56386.22862.22862.22862.22862.56386v2.8347q0 .33525-.22862.56387-.22862.22862-.56386.22862zm0 18.04393q-.30474 0-.53336-.22862-.22862-.22862-.22862-.53337v-14.32549q0-.33525.22862-.54874.22862-.21325.53336-.21325h3.80994q.33524 0 .56386.21325.22862.21349.22862.54874v14.32549q0 .33525-.22862.54849-.22862.2135-.56386.2135zm15.45298.30474q-3.47444 0-5.62328-1.84409-2.14883-1.84409-2.30133-5.13578l-.0305-1.21923.0305-1.24973q.122-3.29169 2.28596-5.15091 2.16421-1.85921 5.63865-1.85921 2.65195 0 4.45017.94473 1.79822.94498 2.6822 2.24033.88399 1.29536.94473 2.36209.0305.33524-.21324.56386-.24375.22862-.57924.22862h-4.08418q-.33524 0-.51824-.15224-.18275-.1525-.33524-.48775-.33525-.85348-.86861-1.24972-.53337-.39625-1.35635-.39625-2.34696 0-2.43846 3.10895l-.0302 1.15823.0302 1.00573q.0305 1.58497.64024 2.33183.60949.74662 1.79822.74662.88398 0 1.38685-.38087.50286-.38112.83811-1.26485.15249-.33525.33524-.48775.183-.15249.51824-.15249h4.08418q.30499 0 .54874.21349.24374.21325.24374.51799 0 .94499-.8381 2.27084-.83811 1.32585-2.66683 2.33158-1.82897 1.00598-4.57217 1.00598zm11.49079-.30474q-.33524 0-.56386-.2135-.22837-.21324-.22837-.54849v-20.11664q0-.33524.22837-.54849.22862-.2135.56386-.2135h3.71869q.33524 0 .54849.2135.2135.21325.2135.54849v10.18032l4.05367-4.63292q.061-.061.22862-.2135.16763-.15224.35062-.22862.18275-.0761.45699-.0761h4.29768q.2745 0 .47262.19812.19812.19812.19812.50287 0 .27424-.2135.48774l-5.3644 5.91289 6.12639 7.58962q.21349.27425.21349.45699 0 .305-.19812.50312-.19812.19812-.50311.19812h-4.41943q-.39624 0-.59436-.122-.19812-.122-.47237-.39624l-4.63291-5.73015v5.4864q0 .30475-.2135.53337-.21325.22862-.54849.22862zm23.53034.30474q-2.49921 0-4.17568-.70098-1.67647-.70124-2.48408-1.67647-.80761-.97524-.80761-1.76772 0-.305.22837-.50312.22862-.19812.50312-.19812h3.68793q.183 0 .30475.122.51824.33524.57924.39624.57899.42674 1.08185.65536.50312.22863 1.20411.22863.82298 0 1.35635-.32012.53336-.32012.53336-.89911 0-.48775-.28962-.79249-.28962-.30474-1.09723-.59436-.80761-.28962-2.45358-.59437-5.27291-1.06673-5.27291-4.87666 0-1.24973.80761-2.39258.80761-1.14311 2.37746-1.8441 1.5696-.70098 3.76406-.70098 2.22521 0 3.85581.68561 1.63059.68586 2.48408 1.64597.85348.96011.85348 1.75259 0 .27425-.19812.48774-.19812.21325-.47262.21325h-3.35269q-.27424 0-.42674-.12175-.36574-.18299-.73149-.45724-.54848-.36574-.9601-.56386-.41137-.19812-1.05161-.19812-.76199 0-1.18848.33524-.42674.33524-.42674.85348 0 .45699.25887.74661.25912.28963 1.06698.56387.80761.2745 2.45358.57924 2.98695.51799 4.3433 1.84384 1.35635 1.32585 1.35635 3.09382 0 2.28596-2.02684 3.64231-2.02709 1.35635-5.68452 1.35635z" fill="#ddd" stroke-width=".252063" />
  <g transform="matrix(.25206301 0 0 .25206301 179.75117 241.55982)">
    <g fill="#333">
      <path d="m243.511 464.852v-72.912c0-4.917 3.458-10.906 7.717-13.365l88.6-51.153c3.042-1.756 7.981-1.756 11.023 0l37.686 21.758c4.259 2.459 7.716 8.448 7.716 13.365v72.911c0 3.513-2.47 7.791-5.511 9.547l-88.6 51.153c-4.259 2.459-11.174 2.459-15.433 0l-37.686-21.758c-3.042-1.756-5.512-6.034-5.512-9.546z" />
      <path d="m345.33984 322.79102c-2.46776 0-4.93675.62423-7.10351 1.875l-88.59961 51.15234c-5.5506 3.20472-9.3086 9.71221-9.3086 16.12109v72.91211c0 5.00394 2.76948 9.80091 7.10352 12.30274l37.68555 21.75781c5.5506 3.20472 13.06463 3.20472 18.61523 0l88.59961-51.1543a3.1823181 3.1823181 0 0 0 .002 0c4.33294-2.50201 7.10157-7.29822 7.10157-12.30273v-72.91016c0-6.40845-3.75586-12.91626-9.30664-16.12109l-37.6875-21.75781c-2.16676-1.25077-4.6338-1.875-7.10157-1.875zm0 6.6289c1.52274 0 3.04469.25258 3.91993.75781l37.68554 21.75782c2.96722 1.71317 6.125 7.18382 6.125 10.60937v72.91016c0 2.02148-2.17085 5.78298-3.91992 6.79297l-88.59961 51.15234c-2.9674 1.71328-9.2826 1.71328-12.25 0l-37.6875-21.75781c-1.74996-1.01017-3.91992-4.77096-3.91992-6.79102v-72.91211c0-3.42512 3.15759-8.89609 6.125-10.60937l88.59961-51.15235c.87524-.50523 2.39914-.75781 3.92187-.75781z" />
    </g>
    <g>
      <path d="m243.511 395.759v69.093c0 3.512 2.47 7.79 5.512 9.546l34.379 19.849c6.084 3.512 11.023.661 11.023-6.365v-69.092c0-3.513-2.469-7.79-5.511-9.547l-34.379-19.848c-6.084-3.513-11.024-.661-11.024 6.364z" fill="#37c871" />
      <path d="m250.45898 384.76172c-1.88186-.15781-3.70446.18136-5.30859 1.10742-3.20825 1.85212-4.82227 5.63226-4.82227 9.89063v69.09179c0 5.00394 2.76948 9.80091 7.10352 12.30274l34.37891 19.84765c3.68775 2.12877 7.76652 2.62179 10.97461.76953 3.20808-1.85225 4.82226-5.63006 4.82226-9.88867v-69.09375c0-5.00391-2.76863-9.79816-7.10156-12.30078a3.1823181 3.1823181 0 0 0 0-.002l-34.37891-19.84766h-.002c-1.84347-1.06418-3.78469-1.71919-5.66602-1.87695zm-.42578 6.3164c.75551.0759 1.7121.38049 2.91016 1.07227l34.37891 19.84766c1.75107 1.01138 3.91992 4.76892 3.91992 6.79101v69.09375c0 2.7674-.85626 3.92521-1.63867 4.37696-.78242.45174-2.21509.6137-4.61133-.76954v.002l-34.37891-19.84961c-1.74996-1.01017-3.91992-4.77096-3.91992-6.79102v-69.09179c0-2.76664.85593-3.92703 1.63867-4.37891.39137-.22594.94566-.37868 1.70117-.30274z" fill="#333" />
    </g>
    <g>
      <path d="m396.253 366.364v69.092c0 3.513-2.47 7.79-5.511 9.547l-85.293 49.244c-6.084 3.512-11.024.661-11.024-6.365v-69.092c0-3.513 2.47-7.79 5.512-9.547l85.293-49.244c6.084-3.512 11.023-.66 11.023 6.365z" fill="#37c871" />
      <path d="m389.30664 355.36523c-1.88177.15761-3.82403.8145-5.66797 1.87891l-85.29297 49.24414c-4.33266 2.50246-7.10351 7.29627-7.10351 12.30078v69.09375c0 4.25876 1.61401 8.03655 4.82226 9.88867 3.20826 1.85213 7.28679 1.35927 10.97461-.76953l85.29297-49.24414a3.1823181 3.1823181 0 0 0 .002 0c4.33156-2.50264 7.10157-7.29822 7.10157-12.30273v-69.0918c0-4.25821-1.61434-8.0363-4.82227-9.88867-1.60396-.92618-3.42487-1.26698-5.30664-1.10938zm.42383 6.31641c.75542-.0759 1.30989.0787 1.70117.30469.78257.45188 1.63867 1.61016 1.63867 4.37695v69.0918c0 2.02148-2.16948 5.78161-3.91992 6.79297l-85.29297 49.24414v-.002c-2.39618 1.3832-3.82858 1.22141-4.61133.76954-.78274-.45188-1.63867-1.60972-1.63867-4.37696v-69.09375c0-2.02148 2.17054-5.77948 3.92188-6.79101l85.29101-49.24414c1.19807-.69159 2.15474-.99641 2.91016-1.07227z" fill="#333" />
    </g>
    <g>
      <path d="m385.23 347.271-34.379-19.849c-3.042-1.756-7.981-1.756-11.023 0l-85.293 49.244c-6.084 3.513-6.084 9.216 0 12.729l34.379 19.848c3.042 1.757 7.981 1.757 11.023 0l85.293-49.244c6.084-3.512 6.084-9.215 0-12.728z" fill="#37c871" />
      <path d="m345.33984 322.79102c-2.46776 0-4.93675.62423-7.10351 1.875l-85.29297 49.24414c-3.68773 2.12935-6.1543 5.41668-6.1543 9.12109s2.46657 6.98979 6.1543 9.11914l34.37891 19.84766c4.3337 2.50306 9.87332 2.50306 14.20703 0l85.29101-49.24414c3.68787-2.12883 6.1543-5.41478 6.1543-9.11914 0-3.70437-2.46657-6.98979-6.1543-9.11915l-34.3789-19.8496c-2.16676-1.25077-4.6338-1.875-7.10157-1.875zm0 6.6289c1.52274 0 3.04469.25258 3.91993.75781l34.3789 19.84961c2.39628 1.38365 2.97266 2.70404 2.97266 3.60743 0 .90338-.57652 2.2262-2.97266 3.60937l-85.29297 49.24414c-1.75029 1.01094-6.08955 1.01094-7.83984 0a3.1823181 3.1823181 0 0 0 0-.002l-34.37891-19.84766h-.002c-2.39481-1.38328-2.9707-2.70405-2.9707-3.60742 0-.90359.57638-2.22573 2.97265-3.60937l85.29102-49.24415c.87524-.50523 2.39914-.75781 3.92187-.75781z" fill="#333" />
    </g>
    <g fill="#333">
      <path d="m345.339 464.852v-72.912c0-4.917 3.458-10.906 7.716-13.365l88.6-51.153c3.042-1.756 7.982-1.756 11.024 0l37.686 21.758c4.258 2.459 7.716 8.448 7.716 13.365v72.911c0 3.513-2.47 7.791-5.512 9.547l-88.6 51.153c-4.258 2.459-11.173 2.459-15.432 0l-37.686-21.758c-3.042-1.756-5.512-6.034-5.512-9.546z" />
      <path d="m447.16797 322.78906c-2.46795 0-4.93663.62611-7.10352 1.87696l-88.59961 51.15234a3.1823181 3.1823181 0 0 0 -.002.002c-5.54952 3.20486-9.30664 9.71026-9.30664 16.11914v72.91211c0 5.00394 2.76948 9.80091 7.10352 12.30274l37.68554 21.75781c5.5506 3.20472 13.06526 3.20512 18.61524 0l88.59961-51.1543v.002c4.33403-2.50184 7.10351-7.30018 7.10351-12.30469v-72.91016c0-6.40888-3.75712-12.91624-9.30664-16.12109a3.1823181 3.1823181 0 0 0 -.002 0l-37.68555-21.75781c-2.16689-1.25085-4.63361-1.87696-7.10156-1.87696zm0 6.63086c1.52305 0 3.04481.25266 3.91992.75781l37.68555 21.75782c2.96648 1.71314 6.125 7.18425 6.125 10.60937v72.91016c0 2.02148-2.16996 5.7828-3.91992 6.79297l-88.59961 51.15234a3.1823181 3.1823181 0 0 0 -.002 0c-2.96602 1.71288-9.28064 1.71328-12.24804 0l-37.6875-21.75781c-1.74997-1.01017-3.91993-4.77096-3.91993-6.79102v-72.91211c0-3.42512 3.15852-8.89623 6.125-10.60937l88.59961-51.15235c.87511-.50515 2.39883-.75781 3.92188-.75781z" />
    </g>
    <g>
      <path d="m345.339 395.759v69.093c0 3.512 2.47 7.79 5.512 9.546l34.379 19.849c6.084 3.512 11.023.661 11.023-6.365v-69.092c0-3.513-2.47-7.79-5.511-9.547l-34.38-19.848c-6.083-3.513-11.023-.661-11.023 6.364z" fill="#ddd" />
      <path d="m352.28516 384.76172c-1.88179-.15782-3.70259.18134-5.30664 1.10742-3.20812 1.85216-4.82227 5.63226-4.82227 9.89063v69.09179c0 5.00394 2.76948 9.80091 7.10352 12.30274l34.3789 19.84765c3.68776 2.12877 7.76653 2.62179 10.97461.76953 3.20808-1.85225 4.82227-5.63006 4.82227-9.88867v-69.09375c0-5.00451-2.77001-9.79813-7.10157-12.30078a3.1823181 3.1823181 0 0 0 -.002-.002l-34.37891-19.84766c-1.84373-1.06477-3.78618-1.71914-5.66796-1.87695zm-.42383 6.3164c.75531.0759 1.71239.38055 2.91015 1.07227l34.37891 19.84766c1.75044 1.01135 3.91992 4.76953 3.91992 6.79101v69.09375c0 2.7674-.85625 3.92521-1.63867 4.37696-.78242.45174-2.21508.6137-4.61133-.76954v.002l-34.3789-19.84961c-1.74997-1.01017-3.91993-4.77096-3.91993-6.79102v-69.09179c0-2.76664.85604-3.92707 1.63868-4.37891.39131-.22592.94586-.37867 1.70117-.30274z" fill="#333" />
    </g>
    <g>
      <path d="m498.081 366.364v69.092c0 3.513-2.47 7.79-5.512 9.547l-85.293 49.244c-6.084 3.512-11.023.661-11.023-6.365v-69.092c0-3.513 2.47-7.79 5.512-9.547l85.293-49.244c6.084-3.512 11.023-.66 11.023 6.365z" fill="#ddd" />
      <path d="m491.13477 355.36523c-1.88177.15761-3.82404.8145-5.66797 1.87891l-85.29297 49.24414c-4.33267 2.50246-7.10352 7.29627-7.10352 12.30078v69.09375c0 4.25861 1.61419 8.03642 4.82227 9.88867 3.20808 1.85226 7.28685 1.35924 10.97461-.76953l85.29297-49.24414c4.33266-2.50246 7.10351-7.29822 7.10351-12.30273v-69.0918c0-4.25821-1.61433-8.0363-4.82226-9.88867-1.60397-.92618-3.42488-1.26698-5.30664-1.10938zm.42382 6.31641c.75542-.0759 1.30989.0787 1.70118.30469.78257.45188 1.63867 1.61016 1.63867 4.37695v69.0918c0 2.02148-2.17054 5.78143-3.92188 6.79297l-85.29101 49.24414v-.002c-2.39625 1.38324-3.82891 1.22128-4.61133.76954-.78242-.45175-1.63867-1.60956-1.63867-4.37696v-69.09375c0-2.02148 2.17054-5.77948 3.92187-6.79101l85.29102-49.24414c1.19806-.69159 2.15473-.99641 2.91015-1.07227z" fill="#333" />
    </g>
    <g>
      <path d="m487.058 347.271-34.379-19.849c-3.042-1.756-7.982-1.756-11.024 0l-85.293 49.244c-6.083 3.513-6.083 9.216 0 12.729l34.38 19.848c3.041 1.757 7.981 1.757 11.023 0l85.293-49.244c6.084-3.512 6.084-9.215 0-12.728z" fill="#ddd" />
      <path d="m447.16797 322.78906c-2.46795 0-4.93663.62611-7.10352 1.87696l-85.29297 49.24414c-3.68725 2.12943-6.15429 5.41691-6.15429 9.12109s2.46704 6.98971 6.15429 9.11914l34.37891 19.84766c4.3335 2.50376 9.87307 2.50321 14.20703 0l85.29102-49.24414c3.68786-2.12883 6.15429-5.41478 6.15429-9.11914 0-3.70437-2.46657-6.98979-6.15429-9.11915l-34.37891-19.8496c-2.16689-1.25085-4.63361-1.87696-7.10156-1.87696zm0 6.63086c1.52305 0 3.04481.25266 3.91992.75781l34.37891 19.84961c2.39627 1.38365 2.97265 2.70404 2.97265 3.60743 0 .90338-.57652 2.2262-2.97265 3.60937l-85.29297 49.24414c-1.75004 1.01079-6.09134 1.01023-7.83985 0a3.1823181 3.1823181 0 0 0 -.002-.002l-34.37891-19.84766c-2.39574-1.38357-2.9707-2.7036-2.9707-3.60742s.57496-2.2258 2.9707-3.60937l85.29297-49.24415c.87511-.50515 2.39883-.75781 3.92188-.75781z" fill="#333" />
    </g>
  </g>
</svg>
