<svg height="20" viewBox="0 0 5.2916665 5.2916668" width="20" xmlns="http://www.w3.org/2000/svg">
  <g transform="matrix(.02027974 0 0 .02027974 -3.739908 -5.710483)">
    <g fill="#333">
      <path d="m187.598 464.852v-72.912c0-4.917 3.457-10.906 7.716-13.365l88.6-51.153c3.042-1.756 7.981-1.756 11.023 0l37.686 21.758c4.259 2.459 7.716 8.448 7.716 13.365v72.911c0 3.513-2.469 7.791-5.511 9.547l-88.6 51.153c-4.259 2.459-11.174 2.459-15.433 0l-37.686-21.758c-3.042-1.756-5.511-6.034-5.511-9.546z" />
      <path d="m289.42578 322.79102c-2.46777 0-4.93675.62423-7.10351 1.875l-88.59961 51.15234c-5.55078 3.20483-9.30664 9.71265-9.30664 16.12109v72.91211c0 5.00334 2.76726 9.80075 7.10156 12.30274l37.68554 21.75781c5.5506 3.20472 13.06464 3.20472 18.61524 0l88.59961-51.15234.002-.002c4.33293-2.50236 7.10156-7.29974 7.10156-12.30273v-72.91016c0-6.40845-3.75586-12.91626-9.30664-16.12109l-37.6875-21.75781c-2.16676-1.25077-4.63379-1.875-7.10156-1.875zm0 6.6289c1.52273 0 3.04468.25258 3.91992.75781l37.68555 21.75782c2.96722 1.71317 6.125 7.18382 6.125 10.60937v72.91016c0 2.02209-2.17022 5.78295-3.91992 6.79297l-88.59961 51.15234c-2.9674 1.71328-9.2826 1.71328-12.25 0l-37.6875-21.75781c-1.7497-1.01002-3.91992-4.77035-3.91992-6.79102v-72.91211c0-3.42555 3.15778-8.8962 6.125-10.60937l88.59961-51.15235c.87524-.50523 2.39914-.75781 3.92187-.75781z" />
    </g>
    <g>
      <path d="m187.598 395.759v69.093c0 3.512 2.469 7.79 5.511 9.546l34.379 19.849c6.084 3.512 11.023.661 11.023-6.365v-69.092c0-3.513-2.469-7.79-5.511-9.547l-34.379-19.848c-6.084-3.513-11.023-.661-11.023 6.364z" fill="#37c871" />
      <path d="m194.54492 384.76172c-1.88181-.15781-3.70455.18129-5.30859 1.10742-3.20808 1.85225-4.82031 5.63241-4.82031 9.89063v69.09179c0 5.00334 2.76726 9.80075 7.10156 12.30274l34.3789 19.84765c3.68776 2.12877 7.76653 2.62179 10.97461.76953 3.20809-1.85225 4.82227-5.63006 4.82227-9.88867v-69.09375c0-5.00391-2.76864-9.79816-7.10156-12.30078a3.1823181 3.1823181 0 0 0 0-.002l-34.37891-19.84766c-1.84391-1.0647-3.78616-1.71914-5.66797-1.87695zm-.42578 6.3164c.75538.0759 1.71207.38047 2.91016 1.07227l34.3789 19.84766c1.75108 1.01138 3.91992 4.76892 3.91992 6.79101v69.09375c0 2.7674-.85625 3.92521-1.63867 4.37696-.78242.45174-2.21508.6137-4.61133-.76954v.002l-34.3789-19.84961c-1.7497-1.01002-3.91992-4.77035-3.91992-6.79102v-69.09179c0-2.76679.8582-3.92716 1.64062-4.37891.39121-.22587.94384-.37868 1.69922-.30274z" fill="#333" />
    </g>
    <g>
      <path d="m340.339 366.364v69.092c0 3.513-2.469 7.79-5.511 9.547l-85.293 49.244c-6.084 3.512-11.024.661-11.024-6.365v-69.092c0-3.513 2.47-7.79 5.512-9.547l85.293-49.244c6.084-3.512 11.023-.66 11.023 6.365z" fill="#37c871" />
      <path d="m333.39258 355.36523c-1.88177.15761-3.82404.8145-5.66797 1.87891l-85.29297 49.24414c-4.33267 2.50246-7.10351 7.29627-7.10352 12.30078v69.09375c0 4.25876 1.61402 8.03655 4.82227 9.88867 3.20826 1.85213 7.28679 1.35927 10.97461-.76953a3.1823181 3.1823181 0 0 0 .002 0l85.29297-49.24414c4.33293-2.50261 7.10156-7.29882 7.10156-12.30273v-69.0918c0-4.25821-1.61433-8.0363-4.82226-9.88867-1.60397-.92618-3.42487-1.26698-5.30664-1.10938zm.42578 6.31641c.75542-.0759 1.30793.0787 1.69922.30469.78257.45188 1.63867 1.61016 1.63867 4.37695v69.0918c0 2.02209-2.16885 5.78158-3.91992 6.79297l-85.29297 49.24414v-.002c-2.39618 1.3832-3.82858 1.22141-4.61133.76954-.78274-.45188-1.63867-1.60972-1.63867-4.37696v-69.09375c0-2.02148 2.17054-5.77948 3.92187-6.79101l85.29102-49.24414c1.19807-.69159 2.15669-.99641 2.91211-1.07227z" fill="#333" />
    </g>
    <g>
      <path d="m329.316 347.271-34.379-19.849c-3.042-1.756-7.981-1.756-11.023 0l-85.293 49.244c-6.084 3.513-6.084 9.216 0 12.729l34.379 19.848c3.042 1.757 7.981 1.757 11.023 0l85.293-49.244c6.084-3.512 6.084-9.215 0-12.728z" fill="#37c871" />
      <path d="m289.42578 322.79102c-2.46777 0-4.93675.62423-7.10351 1.875l-85.29297 49.24414c-3.68773 2.12935-6.15235 5.41668-6.15235 9.12109s2.46462 6.98979 6.15235 9.11914l34.3789 19.84766c4.33371 2.50306 9.87333 2.50306 14.20703 0l85.29102-49.24414c3.68786-2.12883 6.1543-5.41478 6.1543-9.11914 0-3.70437-2.46657-6.98979-6.1543-9.11915l-34.37891-19.8496c-2.16676-1.25077-4.63379-1.875-7.10156-1.875zm0 6.6289c1.52273 0 3.04468.25258 3.91992.75781l34.37891 19.84961c2.39627 1.38365 2.97266 2.70404 2.97266 3.60743 0 .90338-.57652 2.2262-2.97266 3.60937l-85.29297 49.24414c-1.75029 1.01094-6.08955 1.01094-7.83984 0a3.1823181 3.1823181 0 0 0 0-.002l-34.37891-19.84766c-2.39627-1.38365-2.97266-2.70383-2.97266-3.60742s.57639-2.22573 2.97266-3.60937l85.29102-49.24415c.87524-.50523 2.39914-.75781 3.92187-.75781z" fill="#333" />
    </g>
    <g fill="#333">
      <path d="m289.425 464.852v-72.912c0-4.917 3.458-10.906 7.717-13.365l88.6-51.153c3.041-1.756 7.981-1.756 11.023 0l37.686 21.758c4.258 2.459 7.716 8.448 7.716 13.365v72.911c0 3.513-2.47 7.791-5.512 9.547l-88.6 51.153c-4.258 2.459-11.173 2.459-15.432 0l-37.686-21.758c-3.042-1.756-5.512-6.034-5.512-9.546z" />
      <path d="m391.25391 322.78906c-2.46786-.00001-4.93686.62584-7.10352 1.87696l-88.59961 51.15234c-5.55059 3.20472-9.30859 9.71221-9.30859 16.12109v72.91211c0 5.00394 2.76948 9.80091 7.10351 12.30274l37.68555 21.75781c5.5506 3.20472 13.06526 3.20512 18.61523 0l88.59961-51.1543v.002c4.33404-2.50184 7.10352-7.30018 7.10352-12.30469v-72.91016c0-6.40888-3.75712-12.91624-9.30664-16.12109l-37.6875-21.75781c-2.16689-1.25085-4.6337-1.87695-7.10156-1.87696zm0 6.63086c1.52289-.00001 3.04481.25266 3.91992.75781l37.68555 21.75782c2.96648 1.71314 6.12499 7.18425 6.125 10.60937v72.91016c0 2.02148-2.16996 5.7828-3.91993 6.79297l-88.59961 51.15234a3.1823181 3.1823181 0 0 0 -.002 0c-2.96602 1.71288-9.28064 1.71328-12.24805 0l-37.6875-21.75781c-1.74996-1.01017-3.91992-4.77096-3.91992-6.79102v-72.91211c0-3.42512 3.1576-8.89609 6.125-10.60937l88.59961-51.15235a3.1823181 3.1823181 0 0 0 .002 0c.87435-.50488 2.39704-.7578 3.91993-.75781z" />
    </g>
    <g>
      <path d="m289.425 395.759v69.093c0 3.512 2.47 7.79 5.512 9.546l34.379 19.849c6.084 3.512 11.023.661 11.023-6.365v-69.092c0-3.513-2.469-7.79-5.511-9.547l-34.379-19.848c-6.084-3.513-11.024-.661-11.024 6.364z" fill="#ddd" />
      <path d="m296.37305 384.76172c-1.88187-.15781-3.70447.18136-5.3086 1.10742-3.20825 1.85212-4.82226 5.63226-4.82226 9.89063v69.09179c0 5.00394 2.76948 9.80091 7.10351 12.30274l34.37891 19.84765c3.68775 2.12877 7.76653 2.62179 10.97461.76953 3.20808-1.85225 4.82226-5.63006 4.82226-9.88867v-69.09375c0-5.00391-2.76863-9.79816-7.10156-12.30078a3.1823181 3.1823181 0 0 0 0-.002l-34.3789-19.84766h-.002c-1.84347-1.06418-3.78469-1.71919-5.66601-1.87695zm-.42578 6.3164c.75551.0759 1.7121.38049 2.91015 1.07227l34.37891 19.84766c1.75107 1.01138 3.91992 4.76892 3.91992 6.79101v69.09375c0 2.7674-.85625 3.92521-1.63867 4.37696-.78242.45174-2.21509.6137-4.61133-.76954v.002l-34.37891-19.84961c-1.74996-1.01017-3.91992-4.77096-3.91992-6.79102v-69.09179c0-2.76664.85593-3.92703 1.63867-4.37891.39138-.22594.94567-.37868 1.70118-.30274z" fill="#333" />
    </g>
    <g>
      <path d="m442.167 366.364v69.092c0 3.513-2.47 7.79-5.512 9.547l-85.293 49.244c-6.083 3.512-11.023.661-11.023-6.365v-69.092c0-3.513 2.47-7.79 5.512-9.547l85.293-49.244c6.084-3.512 11.023-.66 11.023 6.365z" fill="#ddd" />
      <path d="m435.2207 355.36523c-1.88176.15761-3.82403.8145-5.66797 1.87891l-85.29296 49.24414c-4.33267 2.50246-7.10352 7.29627-7.10352 12.30078v69.09375c0 4.25876 1.61415 8.03651 4.82227 9.88867 3.20811 1.85216 7.2872 1.35938 10.9746-.76953l85.29297-49.24414c4.33267-2.50246 7.10352-7.29822 7.10352-12.30273v-69.0918c0-4.25821-1.61434-8.0363-4.82227-9.88867-1.60396-.92618-3.42487-1.26698-5.30664-1.10938zm.42383 6.31641c.75542-.0759 1.30989.0787 1.70117.30469.78257.45188 1.63868 1.61016 1.63868 4.37695v69.0918c0 2.02148-2.16859 5.78143-3.91993 6.79297l-85.29297 49.24414c-2.3956 1.38309-3.82869 1.21942-4.61132.76758-.78264-.45184-1.63868-1.60972-1.63868-4.37696v-69.09375c0-2.02148 2.17055-5.77948 3.92188-6.79101l85.29102-49.24414c1.19806-.69159 2.15473-.99641 2.91015-1.07227z" fill="#333" />
    </g>
    <g>
      <path d="m431.144 347.271-34.379-19.849c-3.042-1.756-7.982-1.756-11.023 0l-85.293 49.244c-6.084 3.513-6.084 9.216 0 12.729l34.379 19.848c3.042 1.757 7.981 1.757 11.023 0l85.293-49.244c6.084-3.512 6.084-9.215 0-12.728z" fill="#ddd" />
      <path d="m391.25391 322.78906c-2.46786-.00001-4.93686.62584-7.10352 1.87696l-85.29297 49.24414c-3.68772 2.12935-6.1543 5.41668-6.1543 9.12109s2.46658 6.98979 6.1543 9.11914l34.37891 19.84766c4.3337 2.50306 9.87332 2.50306 14.20703 0l85.29102-49.24414c3.68786-2.12883 6.15429-5.41478 6.15429-9.11914 0-3.70437-2.46657-6.98979-6.15429-9.11915l-34.37891-19.8496c-2.16689-1.25085-4.6337-1.87695-7.10156-1.87696zm0 6.63086c1.52289-.00001 3.04481.25266 3.91992.75781l34.3789 19.84961c2.39628 1.38365 2.97266 2.70404 2.97266 3.60743 0 .90338-.57652 2.2262-2.97266 3.60937l-85.29296 49.24414c-1.7503 1.01094-6.08955 1.01094-7.83985 0a3.1823181 3.1823181 0 0 0 0-.002l-34.3789-19.84766h-.002c-2.39481-1.38328-2.9707-2.70405-2.9707-3.60742s.57589-2.22609 2.9707-3.60937l85.29297-49.24415a3.1823181 3.1823181 0 0 0 .002 0c.87435-.50488 2.39704-.7578 3.91993-.75781z" fill="#333" />
    </g>
  </g>
</svg>
