<svg height="20" viewBox="0 0 5.29 5.29" width="20" xmlns="http://www.w3.org/2000/svg">
    <g fill="#333">
        <path d="M.06 3.72V2.24c0-.1.07-.22.16-.27L2.02.93a.25.25 0 0 1 .22 0l.77.44c.08.05.15.17.15.27v1.48c0 .07-.05.16-.11.2l-1.8 1.03a.35.35 0 0 1-.3 0l-.77-.44a.25.25 0 0 1-.12-.2z"/>
        <path d="M2.13.84c-.05 0-.1 0-.14.03L.19 1.91a.39.39 0 0 0-.19.33v1.48c0 .1.06.2.14.25l.77.44c.11.06.26.06.38 0l1.8-1.04a.3.3 0 0 0 .14-.25V1.64a.39.39 0 0 0-.2-.33L2.28.87a.29.29 0 0 0-.14-.03zm0 .13c.03 0 .06 0 .08.02l.76.44a.3.3 0 0 1 .13.21v1.48c0 .04-.05.12-.08.14L1.22 4.3a.3.3 0 0 1-.25 0l-.76-.45a.21.21 0 0 1-.08-.13V2.24a.3.3 0 0 1 .12-.22L2.05 1a.17.17 0 0 1 .08-.02z"/>
    </g>
    <path d="M.06 2.32v1.4c0 .07.05.15.12.19l.7.4c.12.07.22.02.22-.13v-1.4a.25.25 0 0 0-.11-.2l-.7-.4c-.13-.06-.23 0-.23.14z" fill="#37c871"/>
    <path d="M.2 2.1c-.03-.01-.07 0-.1.01-.07.04-.1.12-.1.2v1.4c0 .1.06.2.14.26l.7.4c.08.04.16.05.22.01.07-.03.1-.11.1-.2v-1.4a.3.3 0 0 0-.14-.25l-.7-.4a.28.28 0 0 0-.11-.04zm0 .12.06.02.7.4c.03.03.07.1.07.14v1.4c0 .06-.01.08-.03.1l-.1-.02-.7-.4a.21.21 0 0 1-.07-.14v-1.4c0-.06.02-.08.03-.1H.2z" fill="#333"/>
    <path d="M3.16 1.72v1.4c0 .07-.05.16-.11.2l-1.73 1c-.12.06-.22 0-.22-.14v-1.4c0-.07.05-.16.1-.2l1.74-.99c.12-.07.22-.01.22.13z" fill="#37c871"/>
    <path d="M3.02 1.5a.28.28 0 0 0-.11.03l-1.73 1a.3.3 0 0 0-.15.25v1.4c0 .09.04.17.1.2.07.04.15.03.22-.01l1.73-1a.3.3 0 0 0 .15-.25v-1.4c0-.09-.04-.16-.1-.2a.18.18 0 0 0-.1-.02zm.01.12.03.01c.02.01.04.03.04.09v1.4c0 .04-.05.12-.08.14l-1.73 1c-.05.02-.08.02-.1.01-.01 0-.03-.03-.03-.09v-1.4c0-.04.05-.11.08-.14l1.73-1a.15.15 0 0 1 .06-.02z" fill="#333"/>
    <path d="m2.94 1.33-.7-.4a.25.25 0 0 0-.22 0l-1.73 1c-.13.07-.13.19 0 .26l.7.4c.06.03.16.03.22 0l1.73-1c.12-.07.12-.19 0-.26z" fill="#37c871"/>
    <path d="M2.13.84c-.05 0-.1 0-.14.03l-1.73 1c-.08.05-.13.11-.13.19s.05.14.13.18l.7.4c.08.06.2.06.28 0l1.73-1c.08-.04.13-.1.13-.18 0-.07-.05-.14-.13-.18l-.7-.4a.29.29 0 0 0-.14-.04zm0 .13c.03 0 .06 0 .08.02l.7.4c.04.03.06.05.06.07 0 .02-.02.05-.06.07l-1.73 1a.21.21 0 0 1-.16 0l-.7-.4C.27 2.1.26 2.08.26 2.06s.01-.05.06-.08l1.73-1a.17.17 0 0 1 .08-.01z" fill="#333"/>
    <g fill="#333">
        <path d="M2.13 3.72V2.24c0-.1.07-.22.16-.27L4.09.93a.25.25 0 0 1 .22 0l.76.44c.09.05.16.17.16.27v1.48c0 .07-.05.16-.11.2l-1.8 1.03a.35.35 0 0 1-.31 0l-.77-.44a.25.25 0 0 1-.11-.2z"/>
        <path d="M4.2.84c-.06 0-.1 0-.15.03l-1.8 1.04a.39.39 0 0 0-.18.33v1.48c0 .1.05.2.14.25l.76.44c.12.06.27.06.38 0l1.8-1.04a.3.3 0 0 0 .14-.25V1.64a.39.39 0 0 0-.19-.33L4.34.87a.29.29 0 0 0-.15-.03zm0 .13c.03 0 .06 0 .07.02l.77.44a.3.3 0 0 1 .12.21v1.48c0 .04-.04.12-.08.14L3.28 4.3a.3.3 0 0 1-.24 0l-.77-.45a.21.21 0 0 1-.08-.13V2.24a.3.3 0 0 1 .13-.22L4.12 1a.17.17 0 0 1 .07-.02z"/>
    </g>
    <g>
        <path d="M2.13 2.32v1.4c0 .07.05.15.11.19l.7.4c.12.07.22.02.22-.13v-1.4a.25.25 0 0 0-.11-.2l-.7-.4c-.12-.06-.22 0-.22.14z" fill="#ddd"/>
        <path d="M2.27 2.1c-.04-.01-.07 0-.1.01-.07.04-.1.12-.1.2v1.4c0 .1.05.2.14.26l.7.4c.07.04.15.05.22.01.06-.03.1-.11.1-.2v-1.4a.3.3 0 0 0-.15-.25l-.7-.4a.28.28 0 0 0-.11-.04zm0 .12s.03 0 .05.02l.7.4c.03.03.08.1.08.14v1.4c0 .06-.02.08-.04.1l-.09-.02-.7-.4a.21.21 0 0 1-.08-.14v-1.4c0-.06.02-.08.04-.1h.03z" fill="#333"/>
    </g>
    <g>
        <path d="M5.23 1.72v1.4c0 .07-.05.16-.11.2l-1.73 1c-.13.06-.23 0-.23-.14v-1.4c0-.07.05-.16.11-.2L5 1.6c.13-.07.23-.01.23.13z" fill="#ddd"/>
        <path d="M5.09 1.5a.28.28 0 0 0-.12.03l-1.73 1a.3.3 0 0 0-.14.25v1.4c0 .09.03.17.1.2.06.04.14.03.22-.01l1.73-1a.3.3 0 0 0 .14-.25v-1.4c0-.09-.03-.16-.1-.2a.18.18 0 0 0-.1-.02zm0 .12.04.01c.02.01.03.03.03.09v1.4c0 .04-.04.12-.08.14l-1.73 1c-.05.02-.07.02-.09.01-.02 0-.03-.03-.03-.09v-1.4c0-.04.04-.11.08-.14l1.73-1a.15.15 0 0 1 .05-.02z" fill="#333"/>
    </g>
    <g>
        <path d="m5 1.33-.7-.4a.25.25 0 0 0-.22 0l-1.73 1c-.12.07-.12.19 0 .26l.7.4c.06.03.16.03.22 0l1.73-1c.13-.07.13-.19 0-.26z" fill="#ddd"/>
        <path d="M4.2.84c-.06 0-.1 0-.15.03l-1.73 1c-.07.05-.12.11-.12.19s.05.14.12.18l.7.4c.09.06.2.06.29 0l1.73-1c.07-.04.12-.1.12-.18 0-.07-.05-.14-.12-.18l-.7-.4a.29.29 0 0 0-.15-.04zm0 .13c.03 0 .06 0 .07.02l.7.4c.05.03.06.05.06.07 0 .02-.01.05-.06.07l-1.73 1a.21.21 0 0 1-.16 0l-.7-.4c-.04-.03-.05-.05-.05-.07s0-.05.06-.08l1.73-1a.17.17 0 0 1 .07-.01z" fill="#333"/>
    </g>
</svg>
