<svg xmlns="http://www.w3.org/2000/svg" xmlns:xlink="http://www.w3.org/1999/xlink" style="isolation:isolate"
    viewBox="0 0 174.1 37.6" class="sb-logo">

    <g class="logo-pict">

        <path class="sb"
            d=" M 16.2 33.24 C 19.92 33.24 22.4 30.76 22.4 27.52 C 22.4 20.8 13.16 21.88 13.16 18.04 C 13.16 16.6 14.24 15.6 15.88 15.6 C 17.6 15.6 18.52 16.72 18.64 18.28 C 18.68 18.6 18.88 18.8 19.2 18.8 L 21.56 18.8 C 21.96 18.8 22.08 18.52 22.08 18.24 C 21.96 15.12 20.08 12.36 15.8 12.36 C 12.2 12.36 9.76 14.76 9.76 17.96 C 9.76 24.52 18.96 23.44 18.96 27.48 C 18.96 28.92 18 29.96 16.16 29.96 C 14.08 29.96 13.12 28.84 12.96 26.8 C 12.92 26.4 12.68 26.28 12.4 26.28 L 10.08 26.28 C 9.64 26.28 9.52 26.56 9.52 26.88 C 9.64 30.4 12.04 33.24 16.2 33.24 Z  M 32.32 12.36 C 30.92 12.36 29.8 12.92 29 13.84 L 29 5.32 C 29 5 28.8 4.8 28.44 4.8 L 26.12 4.8 C 25.76 4.8 25.56 5 25.56 5.32 L 25.56 26.72 C 25.56 30.52 28.12 33.24 31.92 33.24 C 35.76 33.24 38.28 30.52 38.28 26.72 L 38.28 18.88 C 38.28 15.08 35.92 12.36 32.32 12.36 Z  M 34.88 26.84 C 34.88 28.72 33.76 29.96 31.92 29.96 C 30.08 29.96 29 28.72 29 26.84 L 29 18.76 C 29 16.88 30.08 15.64 31.92 15.64 C 33.76 15.64 34.88 16.88 34.88 18.76 L 34.88 26.84 Z "
            fill-rule="evenodd" fill="#ddd" />

        <g class="brackets" fill="#37c871">

            <path class="bracket-l"
                d=" M 7.12 2.72 L 7.12 0.52 C 7.12 0.2 6.92 0 6.56 0 L 1.64 0 C 0.6 0 0 0.56 0 1.6 L 0 36 C 0 37.04 0.6 37.6 1.64 37.6 L 6.56 37.6 C 6.92 37.6 7.12 37.4 7.12 37.08 L 7.12 34.88 C 7.12 34.52 6.92 34.32 6.56 34.32 L 3.52 34.32 L 3.52 3.28 L 6.56 3.28 C 6.92 3.28 7.12 3.08 7.12 2.72 Z " />

            <path class="bracket-r"
                d=" M 40.88 2.72 C 40.88 3.08 41.08 3.28 41.44 3.28 L 44.48 3.28 L 44.48 34.32 L 41.44 34.32 C 41.08 34.32 40.88 34.52 40.88 34.88 L 40.88 37.08 C 40.88 37.4 41.08 37.6 41.44 37.6 L 46.36 37.6 C 47.4 37.6 48 37.04 48 36 L 48 1.6 C 48 0.56 47.4 0 46.36 0 L 41.44 0 C 41.08 0 40.88 0.2 40.88 0.52 L 40.88 2.72 Z " />

        </g>

    </g>

    <path class="logo-text"
        d=" M 96.36 19.38 L 95.2 19.38 C 95.02 19.38 94.92 19.48 94.92 19.64 L 94.92 23.9 C 94.52 23.44 93.96 23.16 93.26 23.16 C 91.46 23.16 90.28 24.52 90.28 26.42 L 90.28 30.34 C 90.28 32.24 91.54 33.6 93.46 33.6 C 95.36 33.6 96.64 32.24 96.64 30.34 L 96.64 19.64 C 96.64 19.48 96.54 19.38 96.36 19.38 Z  M 94.92 30.4 C 94.92 31.34 94.38 31.96 93.46 31.96 C 92.54 31.96 91.98 31.34 91.98 30.4 L 91.98 26.36 C 91.98 25.42 92.54 24.8 93.46 24.8 C 94.38 24.8 94.92 25.42 94.92 26.36 L 94.92 30.4 Z  M 101.52 33.58 C 103.32 33.58 104.58 32.34 104.68 30.48 C 104.68 30.32 104.58 30.22 104.42 30.22 L 103.24 30.22 C 103.08 30.22 102.98 30.3 102.96 30.48 C 102.9 31.36 102.36 31.96 101.54 31.96 C 100.62 31.96 100.08 31.32 100.08 30.4 L 100.08 29.36 L 101.56 29.36 C 103.46 29.36 104.74 28.1 104.74 26.34 C 104.74 24.5 103.42 23.16 101.54 23.18 C 99.62 23.18 98.38 24.5 98.36 26.4 L 98.36 30.32 C 98.36 32.28 99.64 33.58 101.52 33.58 Z  M 100.08 27.8 L 100.08 26.38 C 100.08 25.42 100.6 24.8 101.54 24.8 C 102.46 24.8 103.02 25.42 103.02 26.38 C 103.02 27.22 102.48 27.8 101.56 27.8 L 100.08 27.8 Z  M 109.36 33.6 C 111.22 33.6 112.46 32.36 112.46 30.74 C 112.46 27.38 107.84 27.92 107.84 26 C 107.84 25.28 108.38 24.78 109.2 24.78 C 110.06 24.78 110.52 25.34 110.58 26.12 C 110.6 26.28 110.7 26.38 110.86 26.38 L 112.04 26.38 C 112.24 26.38 112.3 26.24 112.3 26.1 C 112.24 24.54 111.3 23.16 109.16 23.16 C 107.36 23.16 106.14 24.36 106.14 25.96 C 106.14 29.24 110.74 28.7 110.74 30.72 C 110.74 31.44 110.26 31.96 109.34 31.96 C 108.3 31.96 107.82 31.4 107.74 30.38 C 107.72 30.18 107.6 30.12 107.46 30.12 L 106.3 30.12 C 106.08 30.12 106.02 30.26 106.02 30.42 C 106.08 32.18 107.28 33.6 109.36 33.6 Z  M 115.06 22.12 C 115.64 22.12 116.1 21.64 116.1 21.1 C 116.1 20.5 115.64 20.06 115.06 20.06 C 114.46 20.06 114.04 20.5 114.04 21.1 C 114.04 21.68 114.46 22.12 115.06 22.12 Z  M 114.48 33.38 L 115.64 33.38 C 115.82 33.38 115.92 33.28 115.92 33.1 L 115.92 23.64 C 115.92 23.48 115.82 23.38 115.64 23.38 L 114.48 23.38 C 114.3 23.38 114.2 23.48 114.2 23.64 L 114.2 33.1 C 114.2 33.28 114.3 33.38 114.48 33.38 Z  M 121 23.16 C 119.08 23.16 117.8 24.52 117.8 26.42 L 117.8 29.86 C 117.8 31.76 119.08 33.12 120.86 33.12 C 121.48 33.12 122.04 32.86 122.46 32.42 L 122.46 34.4 C 122.46 35.38 121.92 35.96 121 35.96 C 120.14 35.96 119.6 35.38 119.54 34.38 C 119.52 34.18 119.42 34.1 119.26 34.1 L 118.08 34.1 C 117.9 34.1 117.8 34.2 117.82 34.38 C 117.9 36.34 119.14 37.6 121 37.6 C 122.94 37.6 124.18 36.32 124.18 34.34 L 124.18 26.42 C 124.18 24.52 122.9 23.16 121 23.16 Z  M 121 31.5 C 120.08 31.5 119.52 30.86 119.52 29.92 L 119.52 26.36 C 119.52 25.42 120.08 24.8 121 24.8 C 121.92 24.8 122.46 25.42 122.46 26.36 L 122.46 29.92 C 122.46 30.86 121.92 31.5 121 31.5 Z  M 126.34 33.38 L 127.5 33.38 C 127.68 33.38 127.78 33.28 127.78 33.1 L 127.78 26.36 C 127.78 25.42 128.3 24.78 129.18 24.78 C 130.06 24.78 130.58 25.42 130.58 26.36 L 130.58 33.1 C 130.58 33.28 130.68 33.38 130.86 33.38 L 132.02 33.38 C 132.2 33.38 132.3 33.28 132.3 33.1 L 132.3 26.42 C 132.3 24.52 131.04 23.16 129.18 23.16 C 127.32 23.16 126.06 24.52 126.06 26.42 L 126.06 33.1 C 126.06 33.28 126.16 33.38 126.34 33.38 Z  M 65.28 33.6 C 67.1 33.6 68.28 32.24 68.28 30.34 L 68.28 23.66 C 68.28 23.48 68.18 23.38 68.02 23.38 L 66.86 23.38 C 66.68 23.38 66.58 23.48 66.58 23.66 L 66.58 30.4 C 66.58 31.34 66.12 31.96 65.28 31.96 C 64.44 31.96 63.96 31.34 63.96 30.4 L 63.96 23.66 C 63.96 23.48 63.86 23.38 63.7 23.38 L 62.54 23.38 C 62.36 23.38 62.26 23.48 62.26 23.66 L 62.26 30.4 C 62.26 31.34 61.8 31.96 60.96 31.96 C 60.12 31.96 59.64 31.34 59.64 30.4 L 59.64 23.66 C 59.64 23.48 59.54 23.38 59.36 23.38 L 58.22 23.38 C 58.04 23.38 57.94 23.48 57.94 23.66 L 57.94 30.34 C 57.94 32.24 59.14 33.6 60.96 33.6 C 61.88 33.6 62.66 33.1 63.12 32.38 C 63.58 33.1 64.34 33.6 65.28 33.6 Z  M 73.16 33.58 C 74.96 33.58 76.22 32.34 76.32 30.48 C 76.32 30.32 76.22 30.22 76.06 30.22 L 74.88 30.22 C 74.72 30.22 74.62 30.3 74.6 30.48 C 74.54 31.36 74 31.96 73.18 31.96 C 72.26 31.96 71.72 31.32 71.72 30.4 L 71.72 29.36 L 73.2 29.36 C 75.1 29.36 76.38 28.1 76.38 26.34 C 76.38 24.5 75.06 23.16 73.18 23.18 C 71.26 23.18 70.02 24.5 70 26.4 L 70 30.32 C 70 32.28 71.28 33.58 73.16 33.58 Z  M 71.72 27.8 L 71.72 26.38 C 71.72 25.42 72.24 24.8 73.18 24.8 C 74.1 24.8 74.66 25.42 74.66 26.38 C 74.66 27.22 74.12 27.8 73.2 27.8 L 71.72 27.8 Z  M 81.34 23.16 C 80.64 23.16 80.08 23.44 79.68 23.9 L 79.68 19.64 C 79.68 19.48 79.58 19.38 79.4 19.38 L 78.24 19.38 C 78.06 19.38 77.96 19.48 77.96 19.64 L 77.96 30.34 C 77.96 32.24 79.24 33.6 81.14 33.6 C 83.06 33.6 84.32 32.24 84.32 30.34 L 84.32 26.42 C 84.32 24.52 83.14 23.16 81.34 23.16 Z  M 82.62 30.4 C 82.62 31.34 82.06 31.96 81.14 31.96 C 80.22 31.96 79.68 31.34 79.68 30.4 L 79.68 26.36 C 79.68 25.42 80.22 24.8 81.14 24.8 C 82.06 24.8 82.62 25.42 82.62 26.36 L 82.62 30.4 Z  M 116.88 5.16 C 116.18 5.16 115.62 5.44 115.22 5.9 L 115.22 1.64 C 115.22 1.48 115.12 1.38 114.94 1.38 L 113.78 1.38 C 113.6 1.38 113.5 1.48 113.5 1.64 L 113.5 12.34 C 113.5 14.24 114.78 15.6 116.68 15.6 C 118.6 15.6 119.86 14.24 119.86 12.34 L 119.86 8.42 C 119.86 6.52 118.68 5.16 116.88 5.16 Z  M 118.16 12.4 C 118.16 13.34 117.6 13.96 116.68 13.96 C 115.76 13.96 115.22 13.34 115.22 12.4 L 115.22 8.36 C 115.22 7.42 115.76 6.8 116.68 6.8 C 117.6 6.8 118.16 7.42 118.16 8.36 L 118.16 12.4 Z  M 124.54 15.58 C 126.46 15.58 127.66 14.26 127.66 12.42 L 127.66 8.4 C 127.66 6.52 126.44 5.16 124.54 5.16 C 122.76 5.16 121.58 6.4 121.46 8.14 C 121.46 8.3 121.56 8.42 121.72 8.42 L 122.88 8.42 C 123.06 8.42 123.14 8.36 123.16 8.18 C 123.22 7.36 123.68 6.8 124.52 6.8 C 125.42 6.8 125.96 7.42 125.96 8.32 L 125.96 9.42 L 124.46 9.42 C 122.58 9.42 121.3 10.7 121.3 12.36 C 121.3 14.24 122.6 15.58 124.54 15.58 Z  M 124.52 13.94 C 123.58 13.94 123.02 13.32 123.02 12.36 C 123.02 11.58 123.58 10.96 124.52 10.96 L 125.96 10.96 L 125.96 12.42 C 125.96 13.34 125.44 13.94 124.52 13.94 Z  M 129.66 15.38 L 130.82 15.38 C 131 15.38 131.1 15.28 131.1 15.1 L 131.1 8.7 C 131.1 7.62 131.78 6.96 132.82 6.96 L 133.54 6.96 C 133.7 6.96 133.8 6.86 133.8 6.7 L 133.8 5.62 C 133.8 5.44 133.7 5.34 133.54 5.34 L 132.8 5.34 C 130.78 5.34 129.38 6.68 129.38 8.84 L 129.38 15.1 C 129.38 15.28 129.48 15.38 129.66 15.38 Z  M 139.16 13.82 L 138.94 13.82 C 137.92 13.82 137.4 13.18 137.4 11.92 L 137.4 6.94 L 138.94 6.94 C 139.1 6.94 139.2 6.84 139.2 6.68 L 139.2 5.64 C 139.2 5.48 139.1 5.38 138.94 5.38 L 137.4 5.38 L 137.4 2.8 C 137.4 2.62 137.3 2.52 137.14 2.52 L 135.98 2.52 C 135.8 2.52 135.7 2.62 135.7 2.8 L 135.7 5.38 L 134.58 5.38 C 134.42 5.38 134.32 5.48 134.32 5.64 L 134.32 6.68 C 134.32 6.84 134.42 6.94 134.58 6.94 L 135.7 6.94 L 135.7 11.9 C 135.7 14.1 136.88 15.44 138.86 15.44 L 139.16 15.44 C 139.34 15.44 139.44 15.34 139.44 15.18 L 139.44 14.08 C 139.44 13.92 139.34 13.82 139.16 13.82 Z  M 143.82 15.6 C 145.76 15.6 147.02 14.24 147.02 12.34 L 147.02 8.42 C 147.02 6.52 145.76 5.16 143.82 5.16 C 141.9 5.16 140.62 6.52 140.62 8.42 L 140.62 12.34 C 140.62 14.24 141.9 15.6 143.82 15.6 Z  M 143.82 13.98 C 142.9 13.98 142.36 13.34 142.36 12.4 L 142.36 8.36 C 142.36 7.42 142.9 6.78 143.82 6.78 C 144.74 6.78 145.3 7.42 145.3 8.36 L 145.3 12.4 C 145.3 13.34 144.74 13.98 143.82 13.98 Z  M 149.2 15.38 L 150.36 15.38 C 150.54 15.38 150.64 15.28 150.64 15.1 L 150.64 1.64 C 150.64 1.48 150.54 1.38 150.36 1.38 L 149.2 1.38 C 149.02 1.38 148.92 1.48 148.92 1.64 L 148.92 15.1 C 148.92 15.28 149.02 15.38 149.2 15.38 Z  M 155.68 15.58 C 157.48 15.58 158.74 14.34 158.84 12.48 C 158.84 12.32 158.74 12.22 158.58 12.22 L 157.4 12.22 C 157.24 12.22 157.14 12.3 157.12 12.48 C 157.06 13.36 156.52 13.96 155.7 13.96 C 154.78 13.96 154.24 13.32 154.24 12.4 L 154.24 11.36 L 155.72 11.36 C 157.62 11.36 158.9 10.1 158.9 8.34 C 158.9 6.5 157.58 5.16 155.7 5.18 C 153.78 5.18 152.54 6.5 152.52 8.4 L 152.52 12.32 C 152.52 14.28 153.8 15.58 155.68 15.58 Z  M 154.24 9.8 L 154.24 8.38 C 154.24 7.42 154.76 6.8 155.7 6.8 C 156.62 6.8 157.18 7.42 157.18 8.38 C 157.18 9.22 156.64 9.8 155.72 9.8 L 154.24 9.8 Z  M 164.64 13.82 L 164.42 13.82 C 163.4 13.82 162.88 13.18 162.88 11.92 L 162.88 6.94 L 164.42 6.94 C 164.58 6.94 164.68 6.84 164.68 6.68 L 164.68 5.64 C 164.68 5.48 164.58 5.38 164.42 5.38 L 162.88 5.38 L 162.88 2.8 C 162.88 2.62 162.78 2.52 162.62 2.52 L 161.46 2.52 C 161.28 2.52 161.18 2.62 161.18 2.8 L 161.18 5.38 L 160.06 5.38 C 159.9 5.38 159.8 5.48 159.8 5.64 L 159.8 6.68 C 159.8 6.84 159.9 6.94 160.06 6.94 L 161.18 6.94 L 161.18 11.9 C 161.18 14.1 162.36 15.44 164.34 15.44 L 164.64 15.44 C 164.82 15.44 164.92 15.34 164.92 15.18 L 164.92 14.08 C 164.92 13.92 164.82 13.82 164.64 13.82 Z  M 170.42 13.82 L 170.2 13.82 C 169.18 13.82 168.66 13.18 168.66 11.92 L 168.66 6.94 L 170.2 6.94 C 170.36 6.94 170.46 6.84 170.46 6.68 L 170.46 5.64 C 170.46 5.48 170.36 5.38 170.2 5.38 L 168.66 5.38 L 168.66 2.8 C 168.66 2.62 168.56 2.52 168.4 2.52 L 167.24 2.52 C 167.06 2.52 166.96 2.62 166.96 2.8 L 166.96 5.38 L 165.84 5.38 C 165.68 5.38 165.58 5.48 165.58 5.64 L 165.58 6.68 C 165.58 6.84 165.68 6.94 165.84 6.94 L 166.96 6.94 L 166.96 11.9 C 166.96 14.1 168.14 15.44 170.12 15.44 L 170.42 15.44 C 170.6 15.44 170.7 15.34 170.7 15.18 L 170.7 14.08 C 170.7 13.92 170.6 13.82 170.42 13.82 Z  M 173.06 4.12 C 173.64 4.12 174.1 3.64 174.1 3.1 C 174.1 2.5 173.64 2.06 173.06 2.06 C 172.46 2.06 172.04 2.5 172.04 3.1 C 172.04 3.68 172.46 4.12 173.06 4.12 Z  M 172.48 15.38 L 173.64 15.38 C 173.82 15.38 173.92 15.28 173.92 15.1 L 173.92 5.64 C 173.92 5.48 173.82 5.38 173.64 5.38 L 172.48 5.38 C 172.3 5.38 172.2 5.48 172.2 5.64 L 172.2 15.1 C 172.2 15.28 172.3 15.38 172.48 15.38 Z  M 60.98 15.6 C 62.84 15.6 64.08 14.36 64.08 12.74 C 64.08 9.38 59.46 9.92 59.46 8 C 59.46 7.28 60 6.78 60.82 6.78 C 61.68 6.78 62.14 7.34 62.2 8.12 C 62.22 8.28 62.32 8.38 62.48 8.38 L 63.66 8.38 C 63.86 8.38 63.92 8.24 63.92 8.1 C 63.86 6.54 62.92 5.16 60.78 5.16 C 58.98 5.16 57.76 6.36 57.76 7.96 C 57.76 11.24 62.36 10.7 62.36 12.72 C 62.36 13.44 61.88 13.96 60.96 13.96 C 59.92 13.96 59.44 13.4 59.36 12.38 C 59.34 12.18 59.22 12.12 59.08 12.12 L 57.92 12.12 C 57.7 12.12 57.64 12.26 57.64 12.42 C 57.7 14.18 58.9 15.6 60.98 15.6 Z  M 69.82 13.82 L 69.6 13.82 C 68.58 13.82 68.06 13.18 68.06 11.92 L 68.06 6.94 L 69.6 6.94 C 69.76 6.94 69.86 6.84 69.86 6.68 L 69.86 5.64 C 69.86 5.48 69.76 5.38 69.6 5.38 L 68.06 5.38 L 68.06 2.8 C 68.06 2.62 67.96 2.52 67.8 2.52 L 66.64 2.52 C 66.46 2.52 66.36 2.62 66.36 2.8 L 66.36 5.38 L 65.24 5.38 C 65.08 5.38 64.98 5.48 64.98 5.64 L 64.98 6.68 C 64.98 6.84 65.08 6.94 65.24 6.94 L 66.36 6.94 L 66.36 11.9 C 66.36 14.1 67.54 15.44 69.52 15.44 L 69.82 15.44 C 70 15.44 70.1 15.34 70.1 15.18 L 70.1 14.08 C 70.1 13.92 70 13.82 69.82 13.82 Z  M 74.44 15.58 C 76.24 15.58 77.5 14.34 77.6 12.48 C 77.6 12.32 77.5 12.22 77.34 12.22 L 76.16 12.22 C 76 12.22 75.9 12.3 75.88 12.48 C 75.82 13.36 75.28 13.96 74.46 13.96 C 73.54 13.96 73 13.32 73 12.4 L 73 11.36 L 74.48 11.36 C 76.38 11.36 77.66 10.1 77.66 8.34 C 77.66 6.5 76.34 5.16 74.46 5.18 C 72.54 5.18 71.3 6.5 71.28 8.4 L 71.28 12.32 C 71.28 14.28 72.56 15.58 74.44 15.58 Z  M 73 9.8 L 73 8.38 C 73 7.42 73.52 6.8 74.46 6.8 C 75.38 6.8 75.94 7.42 75.94 8.38 C 75.94 9.22 75.4 9.8 74.48 9.8 L 73 9.8 Z  M 83.66 5.38 L 81.68 5.38 L 81.68 4.86 C 81.68 3.54 82.32 2.92 83.38 2.92 C 83.54 2.92 83.64 2.82 83.64 2.64 L 83.64 1.58 C 83.64 1.4 83.54 1.3 83.38 1.3 C 81.34 1.3 79.96 2.66 79.96 4.96 L 79.96 5.38 L 78.82 5.38 C 78.66 5.38 78.56 5.48 78.56 5.64 L 78.56 6.68 C 78.56 6.84 78.66 6.94 78.82 6.94 L 79.96 6.94 L 79.96 15.1 C 79.96 15.28 80.06 15.38 80.24 15.38 L 81.4 15.38 C 81.56 15.38 81.68 15.28 81.68 15.1 L 81.68 6.94 L 83.66 6.94 C 83.82 6.94 83.92 6.84 83.92 6.68 L 83.92 5.64 C 83.92 5.48 83.82 5.38 83.66 5.38 Z  M 88.2 15.58 C 90.12 15.58 91.32 14.26 91.32 12.42 L 91.32 8.4 C 91.32 6.52 90.1 5.16 88.2 5.16 C 86.42 5.16 85.24 6.4 85.12 8.14 C 85.12 8.3 85.22 8.42 85.38 8.42 L 86.54 8.42 C 86.72 8.42 86.8 8.36 86.82 8.18 C 86.88 7.36 87.34 6.8 88.18 6.8 C 89.08 6.8 89.62 7.42 89.62 8.32 L 89.62 9.42 L 88.12 9.42 C 86.24 9.42 84.96 10.7 84.96 12.36 C 84.96 14.24 86.26 15.58 88.2 15.58 Z  M 88.18 13.94 C 87.24 13.94 86.68 13.32 86.68 12.36 C 86.68 11.58 87.24 10.96 88.18 10.96 L 89.62 10.96 L 89.62 12.42 C 89.62 13.34 89.1 13.94 88.18 13.94 Z  M 93.32 15.38 L 94.48 15.38 C 94.66 15.38 94.76 15.28 94.76 15.1 L 94.76 8.36 C 94.76 7.42 95.28 6.78 96.16 6.78 C 97.04 6.78 97.56 7.42 97.56 8.36 L 97.56 15.1 C 97.56 15.28 97.66 15.38 97.84 15.38 L 99 15.38 C 99.18 15.38 99.28 15.28 99.28 15.1 L 99.28 8.42 C 99.28 6.52 98.02 5.16 96.16 5.16 C 94.3 5.16 93.04 6.52 93.04 8.42 L 93.04 15.1 C 93.04 15.28 93.14 15.38 93.32 15.38 Z  M 104.2 15.6 C 106.14 15.6 107.4 14.24 107.4 12.34 L 107.4 8.42 C 107.4 6.52 106.14 5.16 104.2 5.16 C 102.28 5.16 101 6.52 101 8.42 L 101 12.34 C 101 14.24 102.28 15.6 104.2 15.6 Z  M 104.2 13.98 C 103.28 13.98 102.74 13.34 102.74 12.4 L 102.74 8.36 C 102.74 7.42 103.28 6.78 104.2 6.78 C 105.12 6.78 105.68 7.42 105.68 8.36 L 105.68 12.4 C 105.68 13.34 105.12 13.98 104.2 13.98 Z "
        fill-rule="evenodd" fill="#ddd" />

</svg>