<svg xmlns="http://www.w3.org/2000/svg" xmlns:xlink="http://www.w3.org/1999/xlink" style="isolation:isolate"
    viewBox="0 0 48 37.6" class="sb-logo">

    <path class="sb"
        d=" M 16.2 33.24 C 19.92 33.24 22.4 30.76 22.4 27.52 C 22.4 20.8 13.16 21.88 13.16 18.04 C 13.16 16.6 14.24 15.6 15.88 15.6 C 17.6 15.6 18.52 16.72 18.64 18.28 C 18.68 18.6 18.88 18.8 19.2 18.8 L 21.56 18.8 C 21.96 18.8 22.08 18.52 22.08 18.24 C 21.96 15.12 20.08 12.36 15.8 12.36 C 12.2 12.36 9.76 14.76 9.76 17.96 C 9.76 24.52 18.96 23.44 18.96 27.48 C 18.96 28.92 18 29.96 16.16 29.96 C 14.08 29.96 13.12 28.84 12.96 26.8 C 12.92 26.4 12.68 26.28 12.4 26.28 L 10.08 26.28 C 9.64 26.28 9.52 26.56 9.52 26.88 C 9.64 30.4 12.04 33.24 16.2 33.24 Z  M 32.32 12.36 C 30.92 12.36 29.8 12.92 29 13.84 L 29 5.32 C 29 5 28.8 4.8 28.44 4.8 L 26.12 4.8 C 25.76 4.8 25.56 5 25.56 5.32 L 25.56 26.72 C 25.56 30.52 28.12 33.24 31.92 33.24 C 35.76 33.24 38.28 30.52 38.28 26.72 L 38.28 18.88 C 38.28 15.08 35.92 12.36 32.32 12.36 Z  M 34.88 26.84 C 34.88 28.72 33.76 29.96 31.92 29.96 C 30.08 29.96 29 28.72 29 26.84 L 29 18.76 C 29 16.88 30.08 15.64 31.92 15.64 C 33.76 15.64 34.88 16.88 34.88 18.76 L 34.88 26.84 Z "
        fill-rule="evenodd" fill="#eee" />

    <g class="brackets" fill="#37c871">

        <path class="bracket-l"
            d=" M 7.12 2.72 L 7.12 0.52 C 7.12 0.2 6.92 0 6.56 0 L 1.64 0 C 0.6 0 0 0.56 0 1.6 L 0 36 C 0 37.04 0.6 37.6 1.64 37.6 L 6.56 37.6 C 6.92 37.6 7.12 37.4 7.12 37.08 L 7.12 34.88 C 7.12 34.52 6.92 34.32 6.56 34.32 L 3.52 34.32 L 3.52 3.28 L 6.56 3.28 C 6.92 3.28 7.12 3.08 7.12 2.72 Z " />

        <path class="bracket-r"
            d=" M 40.88 2.72 C 40.88 3.08 41.08 3.28 41.44 3.28 L 44.48 3.28 L 44.48 34.32 L 41.44 34.32 C 41.08 34.32 40.88 34.52 40.88 34.88 L 40.88 37.08 C 40.88 37.4 41.08 37.6 41.44 37.6 L 46.36 37.6 C 47.4 37.6 48 37.04 48 36 L 48 1.6 C 48 0.56 47.4 0 46.36 0 L 41.44 0 C 41.08 0 40.88 0.2 40.88 0.52 L 40.88 2.72 Z " />

    </g>

</svg>